<?xml version="1.0" encoding="UTF-8"?>
<svg xmlns="http://www.w3.org/2000/svg" viewBox="0 0 300 88" width="300" height="88">
  <!-- Feather quill — full-bleed in the icon area, no background -->
  <g transform="scale(3.6667)">
    <path d="M19 3C19 3 20 8 16 13L13 18L12 21L11 18C9.5 14.5 10 9 16 4C17 3.3 18.2 3 19 3Z" fill="#68aa6e" stroke="white" stroke-width="0.7" stroke-linejoin="round"/>
    <path d="M19 3L12 21" stroke="rgba(0,0,0,0.18)" stroke-width="0.55" stroke-linecap="round" fill="none"/>
    <path d="M11 18L12 21" stroke="#c5e0c8" stroke-width="1.5" stroke-linecap="round" fill="none"/>
    <path d="M19 3C19 3 20 8 16 13L13 18L12 21L11 18C9.5 14.5 10 9 16 4C17 3.3 18.2 3 19 3Z" fill="none" stroke="rgba(30,60,35,0.4)" stroke-width="0.8" stroke-linejoin="round"/>
  </g>

  <!-- Wordmark: "easywriting" -->
  <text
    x="100" y="56"
    font-family="Georgia, 'Times New Roman', serif"
    font-size="26"
    font-weight="600"
    fill="#1a2e1d"
    letter-spacing="-0.6"
  >easywriting</text>

  <!-- Product badge: "poem" pill -->
  <g transform="translate(238 40)">
    <rect
      x="0" y="0" width="48" height="20" rx="5"
      fill="#e8f1e9"
      stroke="#68aa6e"
      stroke-width="1"
    />
    <text
      x="24" y="14"
      font-family="-apple-system, BlinkMacSystemFont, 'Segoe UI', sans-serif"
      font-size="11"
      font-weight="700"
      fill="#3d7a44"
      letter-spacing="0.8"
      text-anchor="middle"
    >POEM</text>
  </g>
</svg>
